<svg xmlns="http://www.w3.org/2000/svg" viewBox="0 0 1859.1 1262.94"><defs><style>.cls-1{fill:url(#linear-gradient)}</style><linearGradient id="linear-gradient" x1=".4" y1="632.62" x2="1859.5" y2="632.62" gradientTransform="matrix(1 0 0 -1 0 1265)" gradientUnits="userSpaceOnUse"><stop offset="0" stop-color="#01ff70"/><stop offset="1" stop-color="#ff2aee"/></linearGradient></defs><title>sig</title><path id="Shape" class="cls-1" d="M1242.3 320.8c-1.2 4.6-3.5 9.3-3.4 14 .2 11.9-1.1 24 4.2 35.3 2.4 5.3 1.2 10.1-2.8 14.7-2.1 2.5-2.7 6.4-3.9 9.6v1c-6.3 16.1 1.3 32.7-1.7 48.8-2.4 12.7-1 26.8-12.1 36.8a8.3 8.3 0 0 0-2 3.4c-3.9 11.6-7.8 23.3-11.4 35-.7 2.3-.2 5.3.5 7.7 1.7 5.4.4 9.3-3.4 13.5-9.1 10.2-11.3 22.5-9.7 36 1.1 9.3-4 17.3-10 24-7.6 8.3-14.4 16.5-17.5 28-2.6 9.5-7.8 18.2-11.8 27.3-2.3 5.1-4.1 10.5-6.8 15.5-3.3 6.1-7.2 11.8-10.8 17.6-1 1.7-2.5 3.3-2.9 5.1-1.4 7.8-5.4 14-10.3 20.1-5.9 7.4-8.8 16.3-9.8 25.8-.2 2.1-.8 4.9-2.2 6.1-9.8 8.2-14 20.1-20.5 30.5-1.2 2-1.8 4.6-3.5 6-8.5 6.9-11.4 16.8-15.5 26.3-3.4 7.9-8 15.3-12.6 22.6-9.5 15.2-19.6 30.1-29 45.3-3.5 5.6-5.9 11.8-9.4 18.9-9.9 3.1-14.3 14.8-23.5 23-1.6-7.3 2.2-11.5 4.1-16.1s4.9-8.4 6.7-13.1c-8.3 7.4-16.9 14.2-21.7 24.6-2.3 5-6.1 9.5-9.6 13.9-5.1 6.6-9.3 13-4.7 21.8.9 1.6.4 4.8-.7 6.4-2.9 4.2-6.6 8-9.9 12a15.05 15.05 0 0 1-1.7-1c.4-1.7.8-3.4 1.3-5.7-3.2-1.1-6.2-3.3-9.7.2-2.9 3-1.9 6-.6 9.2.7 1.8 1 3.8 1.8 6.7-3.9 0-7.2-.5-10.3.1-2.7.5-6.5 1.6-7.4 3.6s.8 5.5 2.1 7.9c.6 1.2 2.9 1.5 4 2-1.9 4.1-2.6 6.3-3.8 8.2-3.3 5.3-5.1 5.8-10.6 3.5-7.7-3.2-7.7-3.2-12.5 3.9-.9 1.4-1.8 2.8-2.8 4.2-5.5 8.4-2.8 16.2 7 19.2 13.2 4.1 26.8 5 40.5 4.3 36.9-1.9 70.9-14 103.9-29.9 22.2-10.7 40.1-27.2 58.6-42.8 3-2.5 5.3-6 7.7-9.2q13.5-17.85 26.9-35.8a26.72 26.72 0 0 0 3.1-5.1c2.3-5.2 4.1-10.6 6.8-15.5s6.1-9.3 9.5-14.3c-1.9-1.7-3.6-3.1-5.3-4.6 3.8-6.8 7.5-13.4 11.6-20.8-2-1-3.9-1.9-6.4-3.1 1.3-7.9 3.2-16 3.9-24.1.6-7.2 0-14.5-.5-21.8-.4-7-1.1-13.9-1.9-20.8-1.7-14.5-9.4-26.9-14.1-40.4-4-11.4-3.5-15.8 5.2-24a32.92 32.92 0 0 0 5.3-5.9c2.9-4.6 6.7-6.6 12.2-7.4 7.8-1.2 15.4-3.8 23.1-5.9a17.47 17.47 0 0 1 14.4 2.2c11.8 7.5 23.6 15 35.3 22.5s23.1 15.8 35.2 22.5c7.7 4.3 17.4 5.2 24.9 9.8 10.9 6.5 22.5 9.3 34.5 11.6 6.1 1.2 12 3.9 17.9 6 6.2 2.2 12.2 3.3 18.9-1.1 4.3 13 15.8 14.3 26.5 16.1 21.3 3.5 42.9 5.1 64 9.4 23.2 4.7 46.4 2.1 69.6 2.3a3.35 3.35 0 0 0 1 0c14.7-4.9 30.3-3.2 45.2-5.7 21.2-3.6 41.8-10.4 62.7-16.1 18.6-5.1 37.2-10.1 55.4-16.2 14.1-4.8 27.7-11 41.3-17.1 14.8-6.7 29.4-13.9 43.9-21.2a171 171 0 0 0 19.7-11.8c4.2-2.8 7.8-4.6 12.7-1.4 2 1.3 5.8 2.1 7.4 1 7.8-4.9 12.4-.6 17.4 5-2.3 5.8-3.7 12.2-7.1 17.2a32.71 32.71 0 0 1-12.6 10.7c-6.1 2.9-9.6 6.9-11.2 13-1.6 6.5-5.8 10.5-11.1 14.6-17.2 13.5-38 19.9-57 29.8-16.8 8.7-35 12.3-52.9 17.1a36.77 36.77 0 0 0-4.7 1.5 317.73 317.73 0 0 1-46.8 12.8c-10.4 2-20.6 4.9-30.9 7.1a175.13 175.13 0 0 1-17.6 3.1c-17.5 1.9-34.8 5.2-52.5 6.4-19.5 1.3-38.9 3-58.5 1.6-18.9-1.4-37.9-1.3-56.8-2.3a185 185 0 0 1-24.7-2.9c-19.9-3.8-39.9-7.6-59.7-12.1-12-2.7-23.6-6.8-35.5-10.1-6.7-1.9-13.6-3-20.2-5.2-11-3.7-21.8-7.9-32.7-11.9-6.5-2.4-13-5.1-19.6-7.3-4.1-1.3-7.4.3-8.3 4.8a65.2 65.2 0 0 0-1.1 9.9c-1.1 16.6-2.6 33.3-8.2 49.1-2.7 7.5-3.8 16.3-12.9 20.3-2.1.9-3 5.8-3.4 8.9-1.7 13.3-9.3 23.9-15.5 35.1a16.15 16.15 0 0 1-6.5 5.9c-4.5 2.3-4.3 5.3-2.1 9.3-7.4 3.1-13.4 7-12.9 16a4.82 4.82 0 0 1-2.5 3.9c-5.9 2.2-8.9 6.4-10.3 12.4-.4 1.7-2.1 3.4-3.6 4.6-12.2 10.7-23.8 22.3-38.2 30.2a12.68 12.68 0 0 0-3.3 2.2c-17.7 16.9-39.6 26.6-61.8 35.9-6.4 2.7-12.9 5.4-19.3 8.2a23.47 23.47 0 0 0-4.5 2.2c-16.3 13.1-35.8 14.4-55.4 14.9-14.9.4-29.9.3-44.9-.5-8.9-.5-17.8-2.6-26.6-4-7.9-1.2-15.7-2.5-23.7-3.4-4.3-.5-8.5-.6-12.1-3.6-3.4-2.9-6.8-1.7-9.8 1.2-6.9 6.7-13.5 13.8-21 19.9-17.7 14.5-33.6 31.2-52.6 44.2-6.9 4.7-13.8 10.2-17.1 19 3.5 1.7 6.4 3.1 10.3 4.9-6.9 5.4-12.7 10-19 15-1.1-2-2.1-3.3-2.5-4.8-.8-2.9-1.2-6.7-5.1-6.1-2.3.4-4.2 3.3-6.2 5.1 3.1 4.2 5.3 7.3 8.2 11.2-3.4 2.2-6 4.1-8.8 5.8-10.8 6.5-21.6 13.1-32.5 19.4-13.3 7.6-26.4 15.4-40.1 22.1-10.4 5.1-21.6 8.7-32.4 12.7-12.7 4.8-25.3 10.5-38.4 13.8-21.5 5.5-43.1 12.2-65.7 11.1-11.8-.6-23.1-1.7-34.9 2.2-6.5 2.1-14.4-.3-21.7-.9-12.3-.9-24.6-1.2-36.7-2.8-16.1-2.1-32.5-2.2-48.3-6.5-9.5-2.6-19.5-3.8-29.2-5.7-6.9-1.4-13.2-3.6-19-8.2-4.8-3.8-11.1-5.6-16.9-7.9-21-8.3-43.2-13.6-61.3-28.2-5.1-4.1-11.5-6.7-16.8-10.8-10.8-8.3-21.6-16.6-31.6-25.8-18.1-16.7-37.2-32.7-52.9-51.4-18.7-22.4-37.1-45.3-51.5-70.9-3.9-6.9-7.3-14.1-11.4-20.9l-10.2-13.4c-5-8.1-9.5-16.6-14.1-25a437.92 437.92 0 0 1-33.5-77.7c-4.8-14.8-9.4-29.7-14.5-44.4-1.5-4.3-4.5-8-6.6-12.1a38.48 38.48 0 0 1-3.6-9 157.16 157.16 0 0 1-3.3-16.6c-.3-2.5-.3-5.4.8-7.5 2.5-5.1 1.7-9.7-.8-14.3-4.9-9.2-7.4-19.1-8.9-29.4a249.34 249.34 0 0 0-6.3-28.2 43 43 0 0 1 0-23.6 22.42 22.42 0 0 0 0-11.5c-4.1-14.1-5.5-27.9-.7-42.2 1.1-3.4-.3-7.7-.9-11.5-.7-4.5-1.6-9-2.4-13 9.8-6 11.8-13.2 7.6-23-3.1-7.3-2.3-14.1 2.3-20.6 1.9-2.7 3.9-5.5 4.8-8.6 3-10.5 5.6-21.1 8-31.7.6-2.5-.2-5.2-.5-7.9-1-9.6-1-18.3 9.3-24.2 3.3-1.9 4.6-7.7 6.5-11.9a100.34 100.34 0 0 0 5.1-12.8c1.8-6.3 3-12.7 4.6-19 .7-2.7 1.2-6.2 3.1-7.7 4.4-3.3 5.8-7.7 7.1-12.7a254.79 254.79 0 0 1 8-25.7c2.4-6.1 3.2-5.9 11.1-5.8-3.9 9.9-7.7 19.6-11.6 29.2 7.3-8.8 17-15.6 18.9-27.9.7-4.3 4.3-8.1 6.5-12.2 7.7-14.3 15.4-28.7 23.2-43l21.5-39.2c1.5-2.8 3.8-5.8.6-9.3-.9.1-2.3-.1-2.6.5-5.2 7.9-11.7 15.1-14.2 24.6a18.12 18.12 0 0 1-1.7 4.6c-5.5 9.1-11.1 18.2-16.8 27.1-.8 1.2-2.3 2-3.9 3.3-2.6-4.7-1.6-8.1.7-11.7 4.8-7.5 9.7-15.1 14.1-22.8 2.5-4.3 4.1-9 6.2-13.4a45.93 45.93 0 0 1 4.8-8.7q10.2-13.35 21-26.1a6.54 6.54 0 0 1 5.1-1.9c4.9 1.2 7.6-1.4 10-4.8 3.7-5.2 7.3-10.3 10.7-15.6a602.4 602.4 0 0 1 51-67.7c18.1-20.3 37.6-39.9 55.6-60.8 13-15.1 27.2-29 41.1-43.2 8.3-8.5 16.9-16.8 25.4-25.1a9.5 9.5 0 0 0-1-1.7l-7.7 1.3a50.37 50.37 0 0 1 23.8-20 61.31 61.31 0 0 0 20.6-13.2c11.3-11 24.8-16.3 39.5-19.9 2.6-.6 5.7-1 7.4-2.6 7.1-7 16-9.2 25.4-10.3 12.1-1.4 22-9 33.5-11.9 8.5-2.2 17-4.6 25.6-6.5 2.1-.5 4.5.9 6.7 1.1 2.9.2 6.3 1 8.8 0 10.6-4.3 21.5-3.4 32.5-2.7 20.3 1.1 40.4 3.4 59.9 9.4 21.1 6.5 41.5 14.9 58.5 29.3 10.9 9.2 22 18.7 30.6 30 9.1 12 14.8 26.6 23 39.5 7.9 12.5 10 27.2 17.1 39.9 3 5.5 4.6 11.8 7.1 17.5 2.7 6 6 6.9 10.6 2.2 11.9-12.2 25.5-22.2 39.5-31.9 7.1-4.9 13.1-11.1 19.8-16.6a78.69 78.69 0 0 1 9.1-5.9c1.4-.9 3.3-1.2 4.4-2.3 9.9-10.7 23.4-16.1 35.8-22.9 13.4-7.3 27.6-13 41.5-19.4 3.9-1.8 7.8-3.9 11.8-5.4 18.6-7.1 37.1-14.5 56.7-18.6 6.4-1.3 12.3-4.7 18.6-6.7 17-5.4 34.4-7.7 52.2-4.6a27.43 27.43 0 0 0 5 .3c33.2.9 63.3 10.1 89.4 31.5a228.53 228.53 0 0 1 38.1 39.3 6.1 6.1 0 0 1 1.2 1.6c2.9 12.9 13.4 22 17.6 34.2 5.8 16.6 11 33.4 16.5 50.1l10.9 33.2c.7 2.1 2.2 5 1.4 6.5-4.9 9.1 1.5 16.5 3.2 24.6.4 1.9 2 4.1 1.5 5.4-2.1 5-1.2 9 .4 14.1s-1.3 11.6-.9 17.4c.6 8.9 2.4 17.9 3.7 27.6zM637.9 303c6-9 10.6-19.2 21.4-24 1.3-.6 2.3-2.4 3-3.9 5-10.7 12.3-19.6 20.1-28.4 4.6-5.2 9.1-10.9 11.6-17.3 4-10.2 9.8-18.7 16.8-26.9a19.93 19.93 0 0 0 4.5-12.7c-.4-7.2-2.7-14.3-4.5-21.4-3.3-12.9-8.7-25.1-14.5-37.1-5.6-11.7-9.6-24.2-19.8-33.1-1.4-1.2-2-3.4-2.8-5.2-5.1-11.8-13.5-20.5-24.6-26.7-5.2-2.9-10.6-5.6-15.5-8.9-8.5-5.7-17.4-9.4-27.7-10.5-6.6-.7-13-2.6-19.5-4.1-26.9-6.1-53.7-3.4-80.3 1.5-10.3 1.9-20.1 6.7-30.4 9.5-9.8 2.7-18 8.4-26.7 13.3-14.1 8.1-28.9 15.1-42.5 24-24.5 16.3-46.6 35.6-67.6 56.1q-10.35 10-20.4 20.4c-8.8 9.1-17.8 18-26 27.5-10.4 12-20.2 24.5-30.2 36.9-12.1 15-24.3 30-36 45.3-13.7 18-27.3 36-40.1 54.6-5 7.3-13.4 13.1-13.1 23.6 0 1.3-1.6 3.7-2.6 3.8-5.5.5-5.5 4.5-6.6 8.4-.8 3-2.8 5.8-4.5 8.5-1.6 2.5-4.4 4.6-5 7.3-3.6 14.7-8.9 28.5-17.9 40.8-5 11.2-9.5 21.5-14.5 31.7-5.6 11.6-12.2 22.9-17.3 34.8A368.85 368.85 0 0 0 82 565.1c-1.7 8.8-4 17.8-3.4 26.5a78.35 78.35 0 0 1-1.7 22.7c-.4 1.8-1.1 4.6-2.4 5-7.4 2.8-8.1 9.5-8.9 15.5-1.6 11.2-2.4 22.5-3.1 33.7-.5 7.6-.2 15.3-.2 22.9 0 9.3-.8 18.6 0 27.8 1.7 18.5 4.1 37 6.8 55.4 2.2 14.8 5.1 29.4 8.2 44.1a275.4 275.4 0 0 0 7.5 28c2 6.2 5.3 12 7.9 18 1.8-3.2 2.2-6.1 2.6-9.2 1.9 3.3 3.9 5.8 4.6 8.5.9 3.7 2.1 8.3.8 11.4-4.1 9.8-2.2 18.8 1.6 27.8 2.5 5.8 5.5 11.4 7.7 17.3 3.7 9.6 6.5 19.6 10.5 29.1a111.39 111.39 0 0 0 11.2 21c2.7 3.8 5.6 7.1 7.2 11.6a44.53 44.53 0 0 0 7.3 14c1.8 2.1 6.3 1.9 10.6 2.9-2.7 2-4.9 3.6-7.5 5.5a73.74 73.74 0 0 0 3.4 7.4c5.7 9.4 12.4 18.2 17.1 28 7.9 16.5 21.7 28 32.5 42 1.5 2 4.3 3.1 6.6 4.3 5.1 2.5 10.1 5.1 15.4 7.1 5.8 2.3 8 6.7 8.6 12.3.3 2.9 0 5.8 0 10.8 7.5-6.3 8.9.4 11.9 4a28.07 28.07 0 0 1 3.9 5.8c5.9 11.2 15.9 17.5 26.5 23.4 4 2.2 8.3 4.5 11.4 7.7 6.6 6.9 14.5 11.6 23 15.4 10.9 4.9 22 9.5 32.8 14.5 8.1 3.8 15.8 8.8 24.2 11.8 13.1 4.8 26.5 9.2 40 12.1 11.8 2.6 23.9 6.2 36.4 1.5 3.3-1.2 7.8.3 11.6 1.3 20.8 5.3 41.7 7.3 63 2.9 7.8-1.6 15.7-2.8 23.5-4.5 20.4-4.5 41.4-7.6 61.1-14.3 22-7.4 43-17.7 64-27.7 13.5-6.4 26.4-14.2 39.1-22a523.07 523.07 0 0 0 65.3-47.5c6.8-5.9 14-11.3 20.8-17.1q14.4-12.3 28.5-24.9a38.09 38.09 0 0 0 5.2-6.1c3.9-5.5 3.4-8.4-2.4-12.3-8.8-6-17.8-11.7-26.5-17.8-20.8-14.6-40-30.8-55.1-51.5-2.5-3.5-5.9-6.2-8.9-9.3-4.9-5-10-9.8-14.5-15.1-8.8-10.3-16.1-21.9-26.9-30.6-7.3-5.8-13.2-13.1-16.4-22.2a17 17 0 0 0-5.1-7.2c-7.1-5.4-11.7-12.6-15.6-20.4-1.2-2.4-2.6-4.9-4.6-6.5-9.8-7.9-12.2-20.3-18.2-30.4-3.9-6.6-6.7-14.4-11.3-20.8-5.1-7.1-5.9-15.2-8.6-22.8-2.6-7.4-9-13.5-10.5-22.1-.9-5.2-3.1-10.1-4.9-15.1-3.5-10.1-7.1-20.1-10.6-30.1-1.7-5-3.5-10-5-15.1a130.37 130.37 0 0 1-4.4-17.4c-1.6-10.5-2.2-21.1-7.4-30.8-1.2-2.2-1.2-5.2-1.2-7.8l.3-28.9c0-20.7-.8-41.2-6.8-61.2-1.1-3.5-.2-7.8.3-11.7.6-4.6 2.5-9.2 2.3-13.7-.2-5.9-1.9-11.7-3.1-17.5-1.6-8.4-.4-15.7 6.9-21.3 2.2-1.7 3.4-4.9 5-7.4-3.3-.3-5 .6-8.1 2.3.5-4.8 1.4-8.4 1-11.8-1.3-13.9 4.1-24.7 12.6-35.5 5.2-6.6 11.6-15.5 3.7-25.3-1.2-1.5-1.4-4.7-.8-6.6 4.2-11.6 8.6-23.1 13.4-34.4 4.9-11.5 9.3-23.1 16.8-33.5 3.3-4.5 5.6-9.3 10.7-12.2 8.1-4.6 12.2-11.2 8.3-20.8-.3-1.4-.3-2.8-1-6.6 4 4.3 6.7 5.5 9.4 1.6zM793 486.2c-.8.1-1.6.1-2.3.2-.5 2.5-1.5 4.9-1.5 7.4 0 11.4-5.8 21-9.7 31.2-2.4 6.3-8.6 10.1-15.1 12.3a13.06 13.06 0 0 1-6.8.3 87.11 87.11 0 0 1-12.3-3.7c-6.7-2.4-8.6-5.2-6.6-12.1a83.46 83.46 0 0 0 3.1-30.6 71.48 71.48 0 0 1 .1-8c.7-30.2 5.9-60.2 3.3-90.5a28.55 28.55 0 0 1 .3-5c1.9-15.3 1.8-30.5-2-45.6a106.12 106.12 0 0 1-2.9-16.7c-1-9.9-1.2-19.9-2.3-29.8a109.49 109.49 0 0 0-3.8-19.6c-2.4-7.9-6.7-9-11.9-2.8-9.5 11.4-18.5 23.3-27.5 35-1.4 1.8-1.9 4.2-2.9 6.3-.8 1.8-1.3 4.3-2.7 5.2-9.4 6.1-12.1 16.8-16.1 25.8-10.5 23.7-19.7 48-28.3 72.4-4.2 11.8-5.8 24.5-8.7 36.8-1.5 6.5-3.5 12.9-4.5 19.4-2.8 18.7-5.2 37.6-7.8 56.3-.8 5.9-2.4 11.9-2.2 17.8q1.05 38.4 3.1 76.8a185.46 185.46 0 0 0 3.9 30.7c4.6 20.4 10.2 40.6 15.3 60.9a14.88 14.88 0 0 1 .6 5.9c-.9 4.7.6 8.4 3.1 12.1a33.07 33.07 0 0 1 3.7 8.1c4.5 14.2 8.1 28.8 16.2 41.7 4.1 6.5 8.3 12.8 9.6 20.6 2.4 14.2 9.2 26.2 18.2 37.2 4.2 5.1 7.6 10.8 11.3 16.3 8.3 12 16.2 24.4 24.9 36.1 5.5 7.4 12.6 13.7 18.4 20.9 14.4 17.9 30.1 34.3 49.6 47a75 75 0 0 1 15.5 13.7c12 14.3 26.3 25 43.7 31.7 5.3 2 9.8 1.2 13.5-3.1s7.3-8.6 11-12.9c9.1-10.9 17.9-22.3 27.5-32.7 6.6-7.1 13.4-13.8 17.2-23 1.1-2.7 3.2-5 5.2-7.2 11.3-12.2 20.9-25.7 29.9-39.7a194.43 194.43 0 0 1 18.3-24.9 351.54 351.54 0 0 0 41.3-57.3c1.7-3 3.1-6.9 2.9-10.3-.4-6.4 2.6-10.5 6.6-14.9a88.28 88.28 0 0 0 10.6-14.3c2.8-4.5 4.7-9.5 7.3-14.1 5.1-9.3 10.3-18.6 15.8-27.6 1.4-2.4 3.8-5.1 6.2-5.9 7.2-2.2 9.2-7.1 8.7-13.7-.5-6.3 1.4-11.4 5.5-16.5a25.22 25.22 0 0 0 4.7-12.8c.7-7.8 3.5-13 11-16.2 3-1.3 6.3-4.4 7.3-7.4a177.35 177.35 0 0 0 6.1-24.9c2.3-13.7 9.4-25.4 15-37.7 1.4-3 4.8-5.8 7.9-7.3 4.7-2.3 6.3-4.7 3.2-9.2-2.6-3.7-1.2-7.2.7-10.3s5-5.3 7.3-8.1 4.3-5.6 6.3-8.4c1.3-1.9 2.1-4.3 3.8-5.7 4.4-3.5 3.8-7.3 1.4-11.5-1.3-2.3-3.6-4.3-4.1-6.7-.6-3 .2-6.2.4-9.3l7.3.6c1.3.1 2.5.3 3.6.4 4.2-5.9 5.2-8.7 3.2-10.8-3.6-3.8-6.6-.1-9.9 1.1-.4.1-1.1-.4-2.3-.9 1.9-3.9 3.4-8 5.8-11.4 5-6.9 6.5-14.4 6.3-22.6-.1-2.3-.1-4.7 0-7 .3-5.7 2.2-10.5 8.3-12.3 5.9-1.8 8.2-5.9 9.3-11.7a85.74 85.74 0 0 1 4.9-18.2c5.4-12.8 9.2-25.5 5.9-39.5a10.59 10.59 0 0 1-.2-5c1.1-5.7-.8-9.8-6.1-12.2-3.5-1.6-5.3-4.4-3.9-8.1 1.7-4.5.6-8.1-1.7-12.2-2.7-5.1-1.3-6.9 4.9-8.5a23.28 23.28 0 0 0 3.2-1.6c-1-2.1-1.8-4.2-2.9-6.1-7-10.8-5.8-21.5 3.3-30.2 4.5-4.3 7.6-9.2 6.4-15.9-.5-2.6.3-5.4-.3-7.9-1.3-5.7-2.1-11.9-5-16.9-2.4-4.1-3.3-7.6-2.4-12.1 2.8-13.3.5-25.7-6.4-37.4a43.49 43.49 0 0 1-5.3-13.9c-2.3-12.4-10.1-23.1-10.5-36 0-1.2-1.2-2.3-1.8-3.5-2.9-5.6-5.4-11.5-8.6-16.9-6.8-11.3-12.6-23.5-24.5-30.9-2.2-1.3-3.6-3.8-5.5-5.7-6.8-6.7-12.9-14.7-20.8-19.6s-17.6-8-26.9-10.1c-25.9-5.8-51.8-3.5-77 3.6s-49 18.7-73.2 28.7a96.89 96.89 0 0 0-12.4 6.4c-25 14.6-50.4 28.6-73.1 46.8-14.5 11.6-29.5 22.7-43.9 34.4-7.1 5.8-12.6 13.2-20.8 18.1-5 3-9.7 10.3-10.4 16.1-1.2 10-1.2 20.4 2.3 30.6 2.6 7.4 3.3 15.5 4.3 23.4l2.6 25.6c1.2 9.5 3.5 18.9 4 28.5.6 9.8 1.9 19 6.9 27.7 3.1 5.4 2.6 10.7 1.1 17.1-2.6 10.8-3.4 22.1 2.7 32.8a40.86 40.86 0 0 1 4.9 16 172.28 172.28 0 0 1 .4 24.9c-.6 13.2-1.8 26.5-2.8 39.7 0 .6-1.4 1.1-2.7 2a44.26 44.26 0 0 1-4.8-7.5zm255.3 346.4c15.4-13.2 18.8-31.9 29.6-45.9 1.4-1.8 1.1-4.8 1.8-8.2-9.3 7.7-30.5 43.8-31.4 54.1zm76.1-130.9c-.9-.4-1.8-.8-2.6-1.2-12.2 14.5-19.6 31.7-28.3 49.6 2.5-.4 3.9-.3 4.2-.8q12.6-20.7 24.9-41.5c1-1.8 1.2-4.1 1.8-6.1zm18.2-41.2c-6.2 5.5-10 11.9-8.8 20.5a33.44 33.44 0 0 0 8.8-20.5zm-409.7 518.3a15.38 15.38 0 0 1-1.2-1.3l-3.3 3.1 1.2 1.2c1-1 2.2-2 3.3-3z" transform="translate(-.4 -.91)"/></svg>

